<svg xmlns="http://www.w3.org/2000/svg" width="880" height="360" viewBox="0 0 880 360" role="img">
<style>
.bg{fill:#101820}.title{fill:#f8f1df;font:700 24px sans-serif}.sub{fill:#cdbf9b;font:14px sans-serif}.label{fill:#f8f1df;font:700 15px sans-serif}.value{fill:#f8f1df;font:700 14px monospace}.axis{stroke:#3b4755;stroke-width:1}.note{fill:#9dadbd;font:12px sans-serif}
</style>
<rect class="bg" x="0" y="0" width="880" height="360" rx="22"/>
<text class="title" x="32" y="42">Umkachu Umlang VM Total Latency</text>
<text class="sub" x="32" y="68">parse raw Korean/Umlang text + lazy compile + execute</text>
<line class="axis" x1="150.0" y1="88" x2="150.0" y2="292"/>
<line class="axis" x1="318.5" y1="88" x2="318.5" y2="292"/>
<line class="axis" x1="487.0" y1="88" x2="487.0" y2="292"/>
<line class="axis" x1="655.5" y1="88" x2="655.5" y2="292"/>
<line class="axis" x1="824.0" y1="88" x2="824.0" y2="292"/>
<text class="label" x="32" y="123">Rust</text>
<rect x="150" y="96" width="158.2" height="42" rx="10" fill="#d56b3f"/>
<text class="value" x="320.2" y="123">45.7 ms</text>
<text class="label" x="32" y="193">Node</text>
<rect x="150" y="166" width="280.7" height="42" rx="10" fill="#4d9f4a"/>
<text class="value" x="442.7" y="193">81.0 ms</text>
<text class="label" x="32" y="263">Python</text>
<rect x="150" y="236" width="674.0" height="42" rx="10" fill="#3975a6"/>
<text class="value" x="836.0" y="263">194.6 ms</text>
<text class="note" x="32" y="330">Benchmark script: tools/bench_umlang_runtimes.py · lower is better</text>
</svg>